<mxfile host="app.diagrams.net" modified="2024-03-13T21:29:55.913Z" agent="Mozilla/5.0 (Windows NT 10.0; Win64; x64) AppleWebKit/537.36 (KHTML, like Gecko) Chrome/122.0.0.0 Safari/537.36" etag="hLkea0rANEB8S2tpwcZC" version="24.0.6" type="device">
  <diagram name="Page-1" id="0783ab3e-0a74-02c8-0abd-f7b4e66b4bec">
    <mxGraphModel dx="1332" dy="468" grid="1" gridSize="10" guides="1" tooltips="1" connect="1" arrows="1" fold="1" page="1" pageScale="1" pageWidth="850" pageHeight="1100" background="none" math="0" shadow="0">
      <root>
        <mxCell id="0" />
        <mxCell id="1" parent="0" />
        <mxCell id="1c1d494c118603dd-1" value="Atividade Venda" style="swimlane;html=1;childLayout=stackLayout;startSize=20;rounded=0;shadow=0;comic=0;labelBackgroundColor=none;strokeWidth=1;fontFamily=Verdana;fontSize=12;align=center;" parent="1" vertex="1">
          <mxGeometry x="220" y="21" width="440" height="990" as="geometry" />
        </mxCell>
        <mxCell id="_HS4XTTo_ev3WUl_7bmB-8" value="" style="endArrow=classic;html=1;rounded=0;exitX=1;exitY=0.5;exitDx=0;exitDy=0;entryX=0;entryY=0.5;entryDx=0;entryDy=0;" edge="1" parent="1c1d494c118603dd-1" source="_HS4XTTo_ev3WUl_7bmB-2" target="_HS4XTTo_ev3WUl_7bmB-6">
          <mxGeometry width="50" height="50" relative="1" as="geometry">
            <mxPoint x="360" y="190" as="sourcePoint" />
            <mxPoint x="410" y="140" as="targetPoint" />
          </mxGeometry>
        </mxCell>
        <mxCell id="1c1d494c118603dd-2" value="Cliente" style="swimlane;html=1;startSize=20;" parent="1c1d494c118603dd-1" vertex="1">
          <mxGeometry y="20" width="250" height="970" as="geometry" />
        </mxCell>
        <mxCell id="_HS4XTTo_ev3WUl_7bmB-2" value="" style="ellipse;whiteSpace=wrap;html=1;rounded=0;shadow=0;comic=0;labelBackgroundColor=none;strokeWidth=1;fillColor=#000000;fontFamily=Verdana;fontSize=12;align=center;" vertex="1" parent="1c1d494c118603dd-2">
          <mxGeometry x="100" y="40" width="40" height="40" as="geometry" />
        </mxCell>
        <mxCell id="_HS4XTTo_ev3WUl_7bmB-17" value="Fazer compra" style="rounded=1;whiteSpace=wrap;html=1;" vertex="1" parent="1c1d494c118603dd-2">
          <mxGeometry x="100" y="590" width="60" height="40" as="geometry" />
        </mxCell>
        <mxCell id="_HS4XTTo_ev3WUl_7bmB-16" value="" style="rhombus;whiteSpace=wrap;html=1;" vertex="1" parent="1c1d494c118603dd-2">
          <mxGeometry x="102.5" y="440" width="45" height="40" as="geometry" />
        </mxCell>
        <mxCell id="_HS4XTTo_ev3WUl_7bmB-18" value="Modifica quantidade" style="rounded=1;whiteSpace=wrap;html=1;" vertex="1" parent="1c1d494c118603dd-2">
          <mxGeometry x="10" y="515" width="80" height="40" as="geometry" />
        </mxCell>
        <mxCell id="_HS4XTTo_ev3WUl_7bmB-19" value="Exclui item" style="rounded=1;whiteSpace=wrap;html=1;" vertex="1" parent="1c1d494c118603dd-2">
          <mxGeometry x="167.5" y="515" width="70" height="40" as="geometry" />
        </mxCell>
        <mxCell id="_HS4XTTo_ev3WUl_7bmB-22" value="" style="endArrow=classic;html=1;rounded=0;entryX=0.5;entryY=0;entryDx=0;entryDy=0;" edge="1" parent="1c1d494c118603dd-2">
          <mxGeometry width="50" height="50" relative="1" as="geometry">
            <mxPoint x="100" y="460" as="sourcePoint" />
            <mxPoint x="60" y="515" as="targetPoint" />
            <Array as="points">
              <mxPoint x="60" y="460" />
            </Array>
          </mxGeometry>
        </mxCell>
        <mxCell id="_HS4XTTo_ev3WUl_7bmB-25" value="" style="endArrow=classic;html=1;rounded=0;exitX=1;exitY=0.5;exitDx=0;exitDy=0;entryX=0.6;entryY=-0.025;entryDx=0;entryDy=0;entryPerimeter=0;" edge="1" parent="1c1d494c118603dd-2" source="_HS4XTTo_ev3WUl_7bmB-16">
          <mxGeometry width="50" height="50" relative="1" as="geometry">
            <mxPoint x="460" y="440" as="sourcePoint" />
            <mxPoint x="189.5" y="514" as="targetPoint" />
            <Array as="points">
              <mxPoint x="190" y="460" />
            </Array>
          </mxGeometry>
        </mxCell>
        <mxCell id="_HS4XTTo_ev3WUl_7bmB-28" value="" style="endArrow=classic;html=1;rounded=0;exitX=0.5;exitY=1;exitDx=0;exitDy=0;entryX=0;entryY=0.5;entryDx=0;entryDy=0;" edge="1" parent="1c1d494c118603dd-2" target="_HS4XTTo_ev3WUl_7bmB-17">
          <mxGeometry width="50" height="50" relative="1" as="geometry">
            <mxPoint x="60" y="555" as="sourcePoint" />
            <mxPoint x="530" y="509" as="targetPoint" />
            <Array as="points">
              <mxPoint x="60" y="609" />
            </Array>
          </mxGeometry>
        </mxCell>
        <mxCell id="_HS4XTTo_ev3WUl_7bmB-29" value="" style="ellipse;html=1;shape=endState;fillColor=#000000;strokeColor=#ff0000;" vertex="1" parent="1c1d494c118603dd-2">
          <mxGeometry x="200" y="649" width="30" height="30" as="geometry" />
        </mxCell>
        <mxCell id="_HS4XTTo_ev3WUl_7bmB-32" value="" style="endArrow=classic;html=1;rounded=0;entryX=0.5;entryY=0;entryDx=0;entryDy=0;" edge="1" parent="1c1d494c118603dd-2" target="_HS4XTTo_ev3WUl_7bmB-29">
          <mxGeometry width="50" height="50" relative="1" as="geometry">
            <mxPoint x="215" y="559" as="sourcePoint" />
            <mxPoint x="210" y="649" as="targetPoint" />
          </mxGeometry>
        </mxCell>
        <mxCell id="_HS4XTTo_ev3WUl_7bmB-35" value="Login" style="rounded=1;whiteSpace=wrap;html=1;" vertex="1" parent="1c1d494c118603dd-2">
          <mxGeometry x="50" y="719" width="50" height="40" as="geometry" />
        </mxCell>
        <mxCell id="_HS4XTTo_ev3WUl_7bmB-36" value="Sem Conta" style="rounded=1;whiteSpace=wrap;html=1;" vertex="1" parent="1c1d494c118603dd-2">
          <mxGeometry x="160" y="719" width="50" height="40" as="geometry" />
        </mxCell>
        <mxCell id="_HS4XTTo_ev3WUl_7bmB-37" value="" style="rhombus;whiteSpace=wrap;html=1;" vertex="1" parent="1c1d494c118603dd-2">
          <mxGeometry x="110" y="659" width="40" height="40" as="geometry" />
        </mxCell>
        <mxCell id="_HS4XTTo_ev3WUl_7bmB-38" value="" style="endArrow=classic;html=1;rounded=0;entryX=0.5;entryY=0;entryDx=0;entryDy=0;exitX=0.5;exitY=1;exitDx=0;exitDy=0;" edge="1" parent="1c1d494c118603dd-2" source="_HS4XTTo_ev3WUl_7bmB-17" target="_HS4XTTo_ev3WUl_7bmB-37">
          <mxGeometry width="50" height="50" relative="1" as="geometry">
            <mxPoint x="480" y="609" as="sourcePoint" />
            <mxPoint x="530" y="559" as="targetPoint" />
          </mxGeometry>
        </mxCell>
        <mxCell id="_HS4XTTo_ev3WUl_7bmB-40" value="" style="endArrow=classic;html=1;rounded=0;entryX=0.5;entryY=0;entryDx=0;entryDy=0;exitX=0;exitY=0.5;exitDx=0;exitDy=0;" edge="1" parent="1c1d494c118603dd-2" source="_HS4XTTo_ev3WUl_7bmB-37" target="_HS4XTTo_ev3WUl_7bmB-35">
          <mxGeometry width="50" height="50" relative="1" as="geometry">
            <mxPoint x="480" y="609" as="sourcePoint" />
            <mxPoint x="530" y="559" as="targetPoint" />
            <Array as="points">
              <mxPoint x="75" y="679" />
            </Array>
          </mxGeometry>
        </mxCell>
        <mxCell id="_HS4XTTo_ev3WUl_7bmB-41" value="" style="endArrow=classic;html=1;rounded=0;exitX=1;exitY=0.5;exitDx=0;exitDy=0;" edge="1" parent="1c1d494c118603dd-2" source="_HS4XTTo_ev3WUl_7bmB-37">
          <mxGeometry width="50" height="50" relative="1" as="geometry">
            <mxPoint x="480" y="609" as="sourcePoint" />
            <mxPoint x="170" y="719" as="targetPoint" />
            <Array as="points">
              <mxPoint x="170" y="679" />
            </Array>
          </mxGeometry>
        </mxCell>
        <mxCell id="_HS4XTTo_ev3WUl_7bmB-44" value="" style="endArrow=classic;html=1;rounded=0;entryX=0.5;entryY=0;entryDx=0;entryDy=0;exitX=0.5;exitY=1;exitDx=0;exitDy=0;" edge="1" parent="1c1d494c118603dd-2" source="_HS4XTTo_ev3WUl_7bmB-35">
          <mxGeometry width="50" height="50" relative="1" as="geometry">
            <mxPoint x="470" y="749" as="sourcePoint" />
            <mxPoint x="75" y="809" as="targetPoint" />
          </mxGeometry>
        </mxCell>
        <mxCell id="_HS4XTTo_ev3WUl_7bmB-45" value="Finalizar&lt;div&gt;compra&lt;/div&gt;" style="rounded=1;whiteSpace=wrap;html=1;" vertex="1" parent="1c1d494c118603dd-2">
          <mxGeometry x="42.5" y="809" width="60" height="40" as="geometry" />
        </mxCell>
        <mxCell id="_HS4XTTo_ev3WUl_7bmB-46" value="" style="ellipse;html=1;shape=endState;fillColor=#000000;strokeColor=#ff0000;" vertex="1" parent="1c1d494c118603dd-2">
          <mxGeometry x="57.5" y="899" width="30" height="30" as="geometry" />
        </mxCell>
        <mxCell id="_HS4XTTo_ev3WUl_7bmB-47" value="" style="endArrow=classic;html=1;rounded=0;entryX=0.5;entryY=0;entryDx=0;entryDy=0;exitX=0.5;exitY=1;exitDx=0;exitDy=0;" edge="1" parent="1c1d494c118603dd-2" source="_HS4XTTo_ev3WUl_7bmB-45" target="_HS4XTTo_ev3WUl_7bmB-46">
          <mxGeometry width="50" height="50" relative="1" as="geometry">
            <mxPoint x="470" y="749" as="sourcePoint" />
            <mxPoint x="520" y="699" as="targetPoint" />
          </mxGeometry>
        </mxCell>
        <mxCell id="_HS4XTTo_ev3WUl_7bmB-48" value="Criar conta" style="rounded=1;whiteSpace=wrap;html=1;" vertex="1" parent="1c1d494c118603dd-2">
          <mxGeometry x="155" y="809" width="60" height="40" as="geometry" />
        </mxCell>
        <mxCell id="_HS4XTTo_ev3WUl_7bmB-49" value="" style="endArrow=classic;html=1;rounded=0;entryX=0.5;entryY=0;entryDx=0;entryDy=0;exitX=0.5;exitY=1;exitDx=0;exitDy=0;" edge="1" parent="1c1d494c118603dd-2" source="_HS4XTTo_ev3WUl_7bmB-36" target="_HS4XTTo_ev3WUl_7bmB-48">
          <mxGeometry width="50" height="50" relative="1" as="geometry">
            <mxPoint x="85" y="769" as="sourcePoint" />
            <mxPoint x="85" y="819" as="targetPoint" />
          </mxGeometry>
        </mxCell>
        <mxCell id="_HS4XTTo_ev3WUl_7bmB-50" value="" style="endArrow=classic;html=1;rounded=0;entryX=1;entryY=0.5;entryDx=0;entryDy=0;exitX=0;exitY=0.5;exitDx=0;exitDy=0;" edge="1" parent="1c1d494c118603dd-2" source="_HS4XTTo_ev3WUl_7bmB-48" target="_HS4XTTo_ev3WUl_7bmB-45">
          <mxGeometry width="50" height="50" relative="1" as="geometry">
            <mxPoint x="195" y="769" as="sourcePoint" />
            <mxPoint x="195" y="819" as="targetPoint" />
          </mxGeometry>
        </mxCell>
        <mxCell id="_HS4XTTo_ev3WUl_7bmB-42" value="Possui&amp;nbsp;&lt;div&gt;&lt;span style=&quot;background-color: initial;&quot;&gt;conta&lt;/span&gt;&lt;/div&gt;" style="text;html=1;align=center;verticalAlign=middle;resizable=0;points=[];autosize=1;strokeColor=none;fillColor=none;" vertex="1" parent="1c1d494c118603dd-2">
          <mxGeometry x="50" y="644" width="60" height="40" as="geometry" />
        </mxCell>
        <mxCell id="1c1d494c118603dd-4" value="Sistema" style="swimlane;html=1;startSize=20;" parent="1c1d494c118603dd-1" vertex="1">
          <mxGeometry x="250" y="20" width="190" height="970" as="geometry" />
        </mxCell>
        <mxCell id="_HS4XTTo_ev3WUl_7bmB-6" value="Home" style="rounded=1;whiteSpace=wrap;html=1;" vertex="1" parent="1c1d494c118603dd-4">
          <mxGeometry x="80" y="40" width="70" height="40" as="geometry" />
        </mxCell>
        <mxCell id="_HS4XTTo_ev3WUl_7bmB-9" value="Seleciona categoria" style="rounded=1;whiteSpace=wrap;html=1;" vertex="1" parent="1c1d494c118603dd-4">
          <mxGeometry x="80" y="120" width="70" height="40" as="geometry" />
        </mxCell>
        <mxCell id="_HS4XTTo_ev3WUl_7bmB-10" value="" style="endArrow=classic;html=1;rounded=0;exitX=0.5;exitY=1;exitDx=0;exitDy=0;entryX=0.5;entryY=0;entryDx=0;entryDy=0;" edge="1" parent="1c1d494c118603dd-4" source="_HS4XTTo_ev3WUl_7bmB-6" target="_HS4XTTo_ev3WUl_7bmB-9">
          <mxGeometry width="50" height="50" relative="1" as="geometry">
            <mxPoint x="110" y="170" as="sourcePoint" />
            <mxPoint x="160" y="120" as="targetPoint" />
          </mxGeometry>
        </mxCell>
        <mxCell id="_HS4XTTo_ev3WUl_7bmB-11" value="Visualiza livros categoria" style="rounded=1;whiteSpace=wrap;html=1;" vertex="1" parent="1c1d494c118603dd-4">
          <mxGeometry x="80" y="200" width="70" height="50" as="geometry" />
        </mxCell>
        <mxCell id="_HS4XTTo_ev3WUl_7bmB-12" value="" style="endArrow=classic;html=1;rounded=0;exitX=0.5;exitY=1;exitDx=0;exitDy=0;entryX=0.5;entryY=0;entryDx=0;entryDy=0;" edge="1" parent="1c1d494c118603dd-4" source="_HS4XTTo_ev3WUl_7bmB-9" target="_HS4XTTo_ev3WUl_7bmB-11">
          <mxGeometry width="50" height="50" relative="1" as="geometry">
            <mxPoint x="220" y="250" as="sourcePoint" />
            <mxPoint x="270" y="200" as="targetPoint" />
          </mxGeometry>
        </mxCell>
        <mxCell id="_HS4XTTo_ev3WUl_7bmB-13" value="insere produto no carrinho" style="rounded=1;whiteSpace=wrap;html=1;" vertex="1" parent="1c1d494c118603dd-4">
          <mxGeometry x="80" y="280" width="70" height="50" as="geometry" />
        </mxCell>
        <mxCell id="_HS4XTTo_ev3WUl_7bmB-14" value="" style="endArrow=classic;html=1;rounded=0;exitX=0.5;exitY=1;exitDx=0;exitDy=0;entryX=0.5;entryY=0;entryDx=0;entryDy=0;" edge="1" parent="1c1d494c118603dd-4" source="_HS4XTTo_ev3WUl_7bmB-11" target="_HS4XTTo_ev3WUl_7bmB-13">
          <mxGeometry width="50" height="50" relative="1" as="geometry">
            <mxPoint x="220" y="250" as="sourcePoint" />
            <mxPoint x="270" y="200" as="targetPoint" />
          </mxGeometry>
        </mxCell>
        <mxCell id="_HS4XTTo_ev3WUl_7bmB-15" value="Carrinho&amp;nbsp;&lt;div&gt;compra&lt;/div&gt;" style="rounded=1;whiteSpace=wrap;html=1;" vertex="1" parent="1c1d494c118603dd-4">
          <mxGeometry x="30" y="360" width="70" height="50" as="geometry" />
        </mxCell>
        <mxCell id="_HS4XTTo_ev3WUl_7bmB-33" value="" style="endArrow=classic;html=1;rounded=0;exitX=0.5;exitY=1;exitDx=0;exitDy=0;" edge="1" parent="1c1d494c118603dd-4" source="_HS4XTTo_ev3WUl_7bmB-13">
          <mxGeometry width="50" height="50" relative="1" as="geometry">
            <mxPoint x="220" y="499" as="sourcePoint" />
            <mxPoint x="100" y="389" as="targetPoint" />
            <Array as="points">
              <mxPoint x="115" y="389" />
            </Array>
          </mxGeometry>
        </mxCell>
        <mxCell id="_HS4XTTo_ev3WUl_7bmB-26" value="" style="endArrow=classic;html=1;rounded=0;exitX=0;exitY=0.75;exitDx=0;exitDy=0;entryX=0.5;entryY=0;entryDx=0;entryDy=0;" edge="1" parent="1c1d494c118603dd-1" source="_HS4XTTo_ev3WUl_7bmB-15" target="_HS4XTTo_ev3WUl_7bmB-16">
          <mxGeometry width="50" height="50" relative="1" as="geometry">
            <mxPoint x="290" y="579" as="sourcePoint" />
            <mxPoint x="-60" y="459" as="targetPoint" />
            <Array as="points">
              <mxPoint x="125" y="419" />
            </Array>
          </mxGeometry>
        </mxCell>
      </root>
    </mxGraphModel>
  </diagram>
</mxfile>
